<svg width="59" height="54" viewBox="0 0 59 54" fill="none" xmlns="http://www.w3.org/2000/svg">
<path d="M11.8 15.4284V7.71412C11.8001 6.35999 12.3453 5.02973 13.381 3.85703C14.4167 2.68433 15.9063 1.71052 17.7001 1.03347C19.4939 0.356424 21.5288 -8.60016e-06 23.6001 1.55633e-10C25.6714 8.60047e-06 27.7062 0.356458 29.5 1.03352C31.2938 0.356458 33.3286 8.60047e-06 35.3999 1.55633e-10C37.4712 -8.60016e-06 39.5061 0.356424 41.2999 1.03347C43.0937 1.71052 44.5833 2.68433 45.619 3.85703C46.6547 5.02973 47.1999 6.35999 47.2 7.71412V15.4284H50.15C52.4972 15.4284 54.7482 16.038 56.4079 17.123C58.0676 18.2081 59 19.6797 59 21.2142V46.2857C59.0001 48.1526 57.9645 49.9562 56.0854 51.362C54.2063 52.7678 51.6111 53.6804 48.7812 53.9306C46.6966 53.7172 44.7972 53.024 43.4255 51.9759C42.0537 50.9277 41.2999 49.5937 41.3 48.2143V7.71412C41.3007 7.1252 41.0951 6.544 40.699 6.01508C40.3028 5.48616 39.7267 5.02356 39.0148 4.66275C38.3028 4.30194 37.4739 4.0525 36.5917 3.93355C35.7094 3.8146 34.7972 3.8293 33.925 3.97653C34.869 5.08354 35.4 6.36026 35.4 7.71412V48.2143C35.4 50.3858 36.4974 52.3877 38.35 54H11.8C8.67045 54 5.66907 53.1872 3.45614 51.7405C1.24321 50.2938 0 48.3316 0 46.2857V21.2142C0 19.6797 0.932408 18.2081 2.59211 17.123C4.2518 16.038 6.50283 15.4284 8.85 15.4284H11.8ZM17.7 7.71412V15.4284H29.5V7.71412C29.5 6.69114 28.8784 5.71005 27.7719 4.9867C26.6655 4.26334 25.1648 3.85696 23.6 3.85696C22.0352 3.85696 20.5345 4.26334 19.4281 4.9867C18.3216 5.71005 17.7 6.69114 17.7 7.71412Z" fill="#000"/>
</svg>
