<svg width="20" height="21" viewBox="0 0 20 21" fill="none" xmlns="http://www.w3.org/2000/svg">
<path d="M19.9992 10.431C19.9992 9.59196 19.9311 8.97971 19.7837 8.34479H10.2031V12.1316H15.8267C15.7134 13.0727 15.1011 14.49 13.7406 15.4423L13.7215 15.5691L16.7507 17.9158L16.9606 17.9367C18.888 16.1566 19.9992 13.5376 19.9992 10.431Z" fill="#4285F4"/>
<path d="M10.2017 20.4084C12.9568 20.4084 15.2697 19.5013 16.9592 17.9367L13.7391 15.4423C12.8775 16.0432 11.721 16.4627 10.2017 16.4627C7.50329 16.4627 5.21303 14.6827 4.39662 12.2224L4.27695 12.2325L1.12713 14.6702L1.08594 14.7847C2.76394 18.118 6.2107 20.4084 10.2017 20.4084Z" fill="#34A853"/>
<path d="M4.3991 12.2224C4.18368 11.5875 4.05901 10.9071 4.05901 10.2042C4.05901 9.5012 4.18368 8.82095 4.38777 8.18603L4.38206 8.05081L1.19277 5.57397L1.08842 5.62361C0.396834 7.00686 0 8.5602 0 10.2042C0 11.8482 0.396834 13.4015 1.08842 14.7847L4.3991 12.2224Z" fill="#FBBC05"/>
<path d="M10.2017 3.9456C12.1178 3.9456 13.4103 4.77327 14.1473 5.46493L17.0272 2.65309C15.2585 1.00909 12.9568 0 10.2017 0C6.2107 0 2.76394 2.29026 1.08594 5.6236L4.38528 8.18602C5.21303 5.72568 7.50329 3.9456 10.2017 3.9456Z" fill="#EB4335"/>
</svg>
