<svg width="133" height="96" viewBox="0 0 133 96" fill="none" xmlns="http://www.w3.org/2000/svg">
<path d="M40.5867 6.63181C39.1277 5.04018 38.9951 4.11172 40.1888 2.38745V2.25482C41.3825 0.397909 43.77 0 54.6461 0C67.3792 0 67.6445 0 65.9202 2.65272C65.1244 4.24436 63.1349 5.70336 61.6759 5.96863C60.2169 6.36654 57.6968 7.95817 56.2378 9.68245C54.6461 11.2741 48.6775 20.6913 42.8415 30.5063C37.0055 40.3214 30.639 51.5955 28.6494 55.3093C26.7925 59.1558 25.2009 63.5328 25.2009 64.9918C25.2009 67.5118 26.1293 67.6445 44.4331 67.6445C63.0022 67.6445 63.798 67.5118 67.6445 64.3286C69.7667 62.4717 72.552 61.0127 73.6131 61.0127C74.6742 61.0127 75.6027 61.2779 75.6027 61.6758C75.6027 62.0738 74.1437 64.9918 68.9709 74.2763L45.7595 74.1437L42.0457 80.9081C40.0562 84.6219 38.7298 88.7337 39.1277 90.1926C39.5256 91.6516 40.3214 92.8454 41.1172 92.8454C41.9131 92.8454 42.4436 93.3759 42.4436 94.1717C42.4436 94.9675 37.4034 95.4981 29.8432 95.4981C22.2829 95.4981 17.2427 94.9675 17.2427 94.1717C17.2427 93.3759 18.3038 92.8454 19.4975 92.8454C20.8239 92.978 22.8134 91.9169 24.0072 90.5906C25.2009 89.2642 27.721 85.5504 29.5779 82.2345C31.5674 78.9186 33.1591 75.8679 33.1591 75.2048C33.1591 74.6742 25.7314 74.2763 16.5795 74.2763C7.42763 74.2763 0 74.011 0 73.6131C0 73.2152 0.530545 71.8888 1.19373 70.5625C1.85691 69.3688 3.97909 67.9098 6.10127 67.3792C9.28454 66.5834 11.4067 63.798 18.4364 51.4629C23.2113 43.2394 30.5063 30.2411 34.7507 22.5482C41.6478 10.213 42.311 8.35608 40.5867 6.63181Z" fill="black"/>
<path d="M54.2482 31.3022C53.4524 29.8432 53.1871 27.8536 53.5851 26.9252C54.2482 25.8641 57.5641 25.3335 71.6236 25.3335L76.929 34.6181C79.847 39.6582 82.6324 43.9026 83.1629 43.9026C83.8261 43.77 90.06 39.6582 110.088 25.3335H121.362C129.851 25.3335 132.504 25.7314 131.973 26.9252C131.575 27.8536 129.718 29.3126 127.729 30.1084C124.678 31.1695 121.097 36.7402 109.027 59.2884C100.804 74.5416 94.1718 88.0705 94.1718 89.2642C94.1718 90.5906 95.2328 92.1822 96.4266 92.8454C98.4161 93.9065 98.5487 94.3044 96.8245 94.9675C95.7634 95.3655 89.1316 95.4981 69.634 94.9675L74.9395 92.3148C79.5818 89.9274 81.8366 86.7441 94.9676 63.798C103.058 49.6059 109.425 37.5361 109.16 36.8729C109.027 36.3423 103.854 39.5256 97.7529 43.9026C89.3968 49.8712 85.8157 51.7281 82.2345 51.7281C77.8575 51.8608 77.1943 51.1976 67.2466 33.9549L61.6759 44.5658C58.4926 50.4018 54.9114 56.7683 53.8503 58.7579C52.126 61.8085 50.7997 62.4717 46.4227 62.4717C43.5047 62.4717 41.1172 62.0738 41.1172 61.4106C41.1172 60.88 44.4331 54.5135 48.5449 47.2185C54.7788 35.9444 55.5746 33.557 54.2482 31.3022Z" fill="black"/>
</svg>
